<mxfile host="Electron" agent="Mozilla/5.0 (Windows NT 10.0; Win64; x64) AppleWebKit/537.36 (KHTML, like Gecko) draw.io/26.2.2 Chrome/134.0.6998.178 Electron/35.1.2 Safari/537.36" version="26.2.2">
  <diagram id="51zmUan4mFf6pz3q3UUt" name="InsureTech">
    <mxGraphModel dx="3260" dy="3752" grid="1" gridSize="10" guides="1" tooltips="1" connect="1" arrows="1" fold="1" page="1" pageScale="1" pageWidth="827" pageHeight="1169" math="0" shadow="0">
      <root>
        <mxCell id="0" />
        <mxCell id="1" parent="0" />
        <mxCell id="xUE3wDn3A-6u5BoFQFFU-32" style="edgeStyle=orthogonalEdgeStyle;rounded=0;orthogonalLoop=1;jettySize=auto;html=1;" edge="1" parent="1" source="xUE3wDn3A-6u5BoFQFFU-3" target="xUE3wDn3A-6u5BoFQFFU-11">
          <mxGeometry relative="1" as="geometry">
            <mxPoint x="-300" y="-1661.333251953125" as="targetPoint" />
            <Array as="points">
              <mxPoint x="940" y="-410" />
              <mxPoint x="940" y="-1600" />
            </Array>
          </mxGeometry>
        </mxCell>
        <mxCell id="xUE3wDn3A-6u5BoFQFFU-33" value="Оповещение о согласовании заявки" style="edgeLabel;html=1;align=center;verticalAlign=middle;resizable=0;points=[];" vertex="1" connectable="0" parent="xUE3wDn3A-6u5BoFQFFU-32">
          <mxGeometry x="-0.3052" y="1" relative="1" as="geometry">
            <mxPoint as="offset" />
          </mxGeometry>
        </mxCell>
        <object placeholders="1" c4Name="Telecom System" c4Type="External System" c4Description="Телеком-оператор" label="&lt;font style=&quot;font-size: 16px&quot;&gt;&lt;b&gt;%c4Name%&lt;/b&gt;&lt;/font&gt;&lt;div&gt;[%c4Type%]&lt;/div&gt;&lt;br&gt;&lt;div&gt;&lt;font style=&quot;font-size: 11px&quot;&gt;&lt;font color=&quot;#cccccc&quot;&gt;%c4Description%&lt;/font&gt;&lt;/div&gt;" id="xUE3wDn3A-6u5BoFQFFU-3">
          <mxCell style="rounded=1;whiteSpace=wrap;html=1;labelBackgroundColor=none;fillColor=#8C8496;fontColor=#ffffff;align=center;arcSize=9;strokeColor=#736782;metaEdit=1;resizable=0;points=[[0.25,0,0],[0.5,0,0],[0.75,0,0],[1,0.25,0],[1,0.5,0],[1,0.75,0],[0.75,1,0],[0.5,1,0],[0.25,1,0],[0,0.75,0],[0,0.5,0],[0,0.25,0]];" vertex="1" parent="1">
            <mxGeometry x="610" y="-470" width="240" height="120" as="geometry" />
          </mxCell>
        </object>
        <mxCell id="xUE3wDn3A-6u5BoFQFFU-39" style="edgeStyle=orthogonalEdgeStyle;rounded=0;orthogonalLoop=1;jettySize=auto;html=1;" edge="1" parent="1" source="xUE3wDn3A-6u5BoFQFFU-4" target="xUE3wDn3A-6u5BoFQFFU-3">
          <mxGeometry relative="1" as="geometry" />
        </mxCell>
        <mxCell id="xUE3wDn3A-6u5BoFQFFU-40" value="Отправляет оповещение" style="edgeLabel;html=1;align=center;verticalAlign=middle;resizable=0;points=[];" vertex="1" connectable="0" parent="xUE3wDn3A-6u5BoFQFFU-39">
          <mxGeometry x="-0.0278" y="3" relative="1" as="geometry">
            <mxPoint as="offset" />
          </mxGeometry>
        </mxCell>
        <object placeholders="1" c4Name="Sms-gateway" c4Type="External System" c4Description="СМС-шлюз телеком-оператора" label="&lt;font style=&quot;font-size: 16px&quot;&gt;&lt;b&gt;%c4Name%&lt;/b&gt;&lt;/font&gt;&lt;div&gt;[%c4Type%]&lt;/div&gt;&lt;br&gt;&lt;div&gt;&lt;font style=&quot;font-size: 11px&quot;&gt;&lt;font color=&quot;#cccccc&quot;&gt;%c4Description%&lt;/font&gt;&lt;/div&gt;" id="xUE3wDn3A-6u5BoFQFFU-4">
          <mxCell style="rounded=1;whiteSpace=wrap;html=1;labelBackgroundColor=none;fillColor=#8C8496;fontColor=#ffffff;align=center;arcSize=9;strokeColor=#736782;metaEdit=1;resizable=0;points=[[0.25,0,0],[0.5,0,0],[0.75,0,0],[1,0.25,0],[1,0.5,0],[1,0.75,0],[0.75,1,0],[0.5,1,0],[0.25,1,0],[0,0.75,0],[0,0.5,0],[0,0.25,0]];" vertex="1" parent="1">
            <mxGeometry x="210" y="-470" width="240" height="120" as="geometry" />
          </mxCell>
        </object>
        <object placeholders="1" c4Name="Call center operator" c4Type="Person" c4Description="Оператор Кол-центра" label="&lt;font style=&quot;font-size: 16px&quot;&gt;&lt;b&gt;%c4Name%&lt;/b&gt;&lt;/font&gt;&lt;div&gt;[%c4Type%]&lt;/div&gt;&lt;br&gt;&lt;div&gt;&lt;font style=&quot;font-size: 11px&quot;&gt;&lt;font color=&quot;#cccccc&quot;&gt;%c4Description%&lt;/font&gt;&lt;/div&gt;" id="xUE3wDn3A-6u5BoFQFFU-9">
          <mxCell style="html=1;fontSize=11;dashed=0;whiteSpace=wrap;fillColor=#083F75;strokeColor=#06315C;fontColor=#ffffff;shape=mxgraph.c4.person2;align=center;metaEdit=1;points=[[0.5,0,0],[1,0.5,0],[1,0.75,0],[0.75,1,0],[0.5,1,0],[0.25,1,0],[0,0.75,0],[0,0.5,0]];resizable=0;" vertex="1" parent="1">
            <mxGeometry x="480" y="-1320" width="200" height="180" as="geometry" />
          </mxCell>
        </object>
        <mxCell id="xUE3wDn3A-6u5BoFQFFU-26" style="edgeStyle=orthogonalEdgeStyle;rounded=0;orthogonalLoop=1;jettySize=auto;html=1;" edge="1" parent="1" source="xUE3wDn3A-6u5BoFQFFU-10" target="xUE3wDn3A-6u5BoFQFFU-25">
          <mxGeometry relative="1" as="geometry">
            <Array as="points">
              <mxPoint x="410" y="-1020" />
            </Array>
          </mxGeometry>
        </mxCell>
        <mxCell id="xUE3wDn3A-6u5BoFQFFU-27" value="Передает обращение" style="edgeLabel;html=1;align=center;verticalAlign=middle;resizable=0;points=[];" vertex="1" connectable="0" parent="xUE3wDn3A-6u5BoFQFFU-26">
          <mxGeometry x="-0.4889" y="-2" relative="1" as="geometry">
            <mxPoint as="offset" />
          </mxGeometry>
        </mxCell>
        <object placeholders="1" c4Name="Call center System" c4Type="Container" c4Technology="System" c4Description="Система кол-центра" label="&lt;font style=&quot;font-size: 16px&quot;&gt;&lt;b&gt;%c4Name%&lt;/b&gt;&lt;/font&gt;&lt;div&gt;[%c4Type%: %c4Technology%]&lt;/div&gt;&lt;br&gt;&lt;div&gt;&lt;font style=&quot;font-size: 11px&quot;&gt;&lt;font color=&quot;#E6E6E6&quot;&gt;%c4Description%&lt;/font&gt;&lt;/div&gt;" id="xUE3wDn3A-6u5BoFQFFU-10">
          <mxCell style="rounded=1;whiteSpace=wrap;html=1;fontSize=11;labelBackgroundColor=none;fillColor=#23A2D9;fontColor=#ffffff;align=center;arcSize=10;strokeColor=#0E7DAD;metaEdit=1;resizable=0;points=[[0.25,0,0],[0.5,0,0],[0.75,0,0],[1,0.25,0],[1,0.5,0],[1,0.75,0],[0.75,1,0],[0.5,1,0],[0.25,1,0],[0,0.75,0],[0,0.5,0],[0,0.25,0]];" vertex="1" parent="1">
            <mxGeometry x="460" y="-1080" width="240" height="120" as="geometry" />
          </mxCell>
        </object>
        <mxCell id="xUE3wDn3A-6u5BoFQFFU-15" style="edgeStyle=orthogonalEdgeStyle;rounded=0;orthogonalLoop=1;jettySize=auto;html=1;" edge="1" parent="1" source="xUE3wDn3A-6u5BoFQFFU-11" target="xUE3wDn3A-6u5BoFQFFU-9">
          <mxGeometry relative="1" as="geometry">
            <Array as="points">
              <mxPoint x="580" y="-1540" />
            </Array>
          </mxGeometry>
        </mxCell>
        <mxCell id="xUE3wDn3A-6u5BoFQFFU-16" value="Уточняет детали заявки" style="edgeLabel;html=1;align=center;verticalAlign=middle;resizable=0;points=[];" vertex="1" connectable="0" parent="xUE3wDn3A-6u5BoFQFFU-15">
          <mxGeometry x="0.2826" y="3" relative="1" as="geometry">
            <mxPoint as="offset" />
          </mxGeometry>
        </mxCell>
        <object placeholders="1" c4Name="Клиент" c4Type="Person" c4Description="Клиент" label="&lt;font style=&quot;font-size: 16px&quot;&gt;&lt;b&gt;%c4Name%&lt;/b&gt;&lt;/font&gt;&lt;div&gt;[%c4Type%]&lt;/div&gt;&lt;br&gt;&lt;div&gt;&lt;font style=&quot;font-size: 11px&quot;&gt;&lt;font color=&quot;#cccccc&quot;&gt;%c4Description%&lt;/font&gt;&lt;/div&gt;" id="xUE3wDn3A-6u5BoFQFFU-11">
          <mxCell style="html=1;fontSize=11;dashed=0;whiteSpace=wrap;fillColor=#083F75;strokeColor=#06315C;fontColor=#ffffff;shape=mxgraph.c4.person2;align=center;metaEdit=1;points=[[0.5,0,0],[1,0.5,0],[1,0.75,0],[0.75,1,0],[0.5,1,0],[0.25,1,0],[0,0.75,0],[0,0.5,0]];resizable=0;" vertex="1" parent="1">
            <mxGeometry x="200" y="-1690" width="200" height="180" as="geometry" />
          </mxCell>
        </object>
        <object placeholders="1" c4Name="Credit specialist" c4Type="Person" c4Description="Сотрудник отдела кредитования" label="&lt;font style=&quot;font-size: 16px&quot;&gt;&lt;b&gt;%c4Name%&lt;/b&gt;&lt;/font&gt;&lt;div&gt;[%c4Type%]&lt;/div&gt;&lt;br&gt;&lt;div&gt;&lt;font style=&quot;font-size: 11px&quot;&gt;&lt;font color=&quot;#cccccc&quot;&gt;%c4Description%&lt;/font&gt;&lt;/div&gt;" id="xUE3wDn3A-6u5BoFQFFU-12">
          <mxCell style="html=1;fontSize=11;dashed=0;whiteSpace=wrap;fillColor=#083F75;strokeColor=#06315C;fontColor=#ffffff;shape=mxgraph.c4.person2;align=center;metaEdit=1;points=[[0.5,0,0],[1,0.5,0],[1,0.75,0],[0.75,1,0],[0.5,1,0],[0.25,1,0],[0,0.75,0],[0,0.5,0]];resizable=0;" vertex="1" parent="1">
            <mxGeometry x="-60" y="-1320" width="200" height="180" as="geometry" />
          </mxCell>
        </object>
        <mxCell id="xUE3wDn3A-6u5BoFQFFU-13" style="edgeStyle=orthogonalEdgeStyle;rounded=0;orthogonalLoop=1;jettySize=auto;html=1;entryX=0.5;entryY=0;entryDx=0;entryDy=0;entryPerimeter=0;" edge="1" parent="1" source="xUE3wDn3A-6u5BoFQFFU-11" target="xUE3wDn3A-6u5BoFQFFU-12">
          <mxGeometry relative="1" as="geometry">
            <Array as="points">
              <mxPoint x="40" y="-1570" />
            </Array>
          </mxGeometry>
        </mxCell>
        <mxCell id="xUE3wDn3A-6u5BoFQFFU-14" value="Подает заявку на депозит" style="edgeLabel;html=1;align=center;verticalAlign=middle;resizable=0;points=[];" vertex="1" connectable="0" parent="xUE3wDn3A-6u5BoFQFFU-13">
          <mxGeometry x="0.15" relative="1" as="geometry">
            <mxPoint as="offset" />
          </mxGeometry>
        </mxCell>
        <object placeholders="1" c4Name="Mail system" c4Type="Container" c4Technology="System" c4Description="Почтовая система" label="&lt;font style=&quot;font-size: 16px&quot;&gt;&lt;b&gt;%c4Name%&lt;/b&gt;&lt;/font&gt;&lt;div&gt;[%c4Type%: %c4Technology%]&lt;/div&gt;&lt;br&gt;&lt;div&gt;&lt;font style=&quot;font-size: 11px&quot;&gt;&lt;font color=&quot;#E6E6E6&quot;&gt;%c4Description%&lt;/font&gt;&lt;/div&gt;" id="xUE3wDn3A-6u5BoFQFFU-17">
          <mxCell style="rounded=1;whiteSpace=wrap;html=1;fontSize=11;labelBackgroundColor=none;fillColor=#23A2D9;fontColor=#ffffff;align=center;arcSize=10;strokeColor=#0E7DAD;metaEdit=1;resizable=0;points=[[0.25,0,0],[0.5,0,0],[0.75,0,0],[1,0.25,0],[1,0.5,0],[1,0.75,0],[0.75,1,0],[0.5,1,0],[0.25,1,0],[0,0.75,0],[0,0.5,0],[0,0.25,0]];" vertex="1" parent="1">
            <mxGeometry x="-80" y="-1080" width="240" height="120" as="geometry" />
          </mxCell>
        </object>
        <mxCell id="xUE3wDn3A-6u5BoFQFFU-18" style="edgeStyle=orthogonalEdgeStyle;rounded=0;orthogonalLoop=1;jettySize=auto;html=1;entryX=0.5;entryY=0;entryDx=0;entryDy=0;entryPerimeter=0;" edge="1" parent="1" source="xUE3wDn3A-6u5BoFQFFU-12" target="xUE3wDn3A-6u5BoFQFFU-17">
          <mxGeometry relative="1" as="geometry" />
        </mxCell>
        <mxCell id="xUE3wDn3A-6u5BoFQFFU-19" value="Отправляет обработанные заявки в Excel" style="edgeLabel;html=1;align=center;verticalAlign=middle;resizable=0;points=[];" vertex="1" connectable="0" parent="xUE3wDn3A-6u5BoFQFFU-18">
          <mxGeometry x="-0.2556" y="-1" relative="1" as="geometry">
            <mxPoint as="offset" />
          </mxGeometry>
        </mxCell>
        <object placeholders="1" c4Name="Back-office specialist" c4Type="Person" c4Description="Сотрудник бэк-офиса" label="&lt;font style=&quot;font-size: 16px&quot;&gt;&lt;b&gt;%c4Name%&lt;/b&gt;&lt;/font&gt;&lt;div&gt;[%c4Type%]&lt;/div&gt;&lt;br&gt;&lt;div&gt;&lt;font style=&quot;font-size: 11px&quot;&gt;&lt;font color=&quot;#cccccc&quot;&gt;%c4Description%&lt;/font&gt;&lt;/div&gt;" id="xUE3wDn3A-6u5BoFQFFU-20">
          <mxCell style="html=1;fontSize=11;dashed=0;whiteSpace=wrap;fillColor=#083F75;strokeColor=#06315C;fontColor=#ffffff;shape=mxgraph.c4.person2;align=center;metaEdit=1;points=[[0.5,0,0],[1,0.5,0],[1,0.75,0],[0.75,1,0],[0.5,1,0],[0.25,1,0],[0,0.75,0],[0,0.5,0]];resizable=0;" vertex="1" parent="1">
            <mxGeometry x="-60" y="-900" width="200" height="180" as="geometry" />
          </mxCell>
        </object>
        <mxCell id="xUE3wDn3A-6u5BoFQFFU-21" style="edgeStyle=orthogonalEdgeStyle;rounded=0;orthogonalLoop=1;jettySize=auto;html=1;entryX=0.5;entryY=0;entryDx=0;entryDy=0;entryPerimeter=0;" edge="1" parent="1" source="xUE3wDn3A-6u5BoFQFFU-17" target="xUE3wDn3A-6u5BoFQFFU-20">
          <mxGeometry relative="1" as="geometry" />
        </mxCell>
        <mxCell id="xUE3wDn3A-6u5BoFQFFU-22" value="Получает заявки" style="edgeLabel;html=1;align=center;verticalAlign=middle;resizable=0;points=[];" vertex="1" connectable="0" parent="xUE3wDn3A-6u5BoFQFFU-21">
          <mxGeometry x="-0.2889" y="5" relative="1" as="geometry">
            <mxPoint as="offset" />
          </mxGeometry>
        </mxCell>
        <mxCell id="xUE3wDn3A-6u5BoFQFFU-23" style="edgeStyle=orthogonalEdgeStyle;rounded=0;orthogonalLoop=1;jettySize=auto;html=1;entryX=0.5;entryY=0;entryDx=0;entryDy=0;entryPerimeter=0;" edge="1" parent="1" source="xUE3wDn3A-6u5BoFQFFU-9" target="xUE3wDn3A-6u5BoFQFFU-10">
          <mxGeometry relative="1" as="geometry" />
        </mxCell>
        <mxCell id="xUE3wDn3A-6u5BoFQFFU-24" value="Заводит обращение" style="edgeLabel;html=1;align=center;verticalAlign=middle;resizable=0;points=[];" vertex="1" connectable="0" parent="xUE3wDn3A-6u5BoFQFFU-23">
          <mxGeometry x="-0.3222" y="-2" relative="1" as="geometry">
            <mxPoint as="offset" />
          </mxGeometry>
        </mxCell>
        <mxCell id="xUE3wDn3A-6u5BoFQFFU-30" style="edgeStyle=orthogonalEdgeStyle;rounded=0;orthogonalLoop=1;jettySize=auto;html=1;entryX=0.5;entryY=0;entryDx=0;entryDy=0;entryPerimeter=0;" edge="1" parent="1" source="xUE3wDn3A-6u5BoFQFFU-25" target="xUE3wDn3A-6u5BoFQFFU-4">
          <mxGeometry relative="1" as="geometry">
            <mxPoint x="330" y="-490" as="targetPoint" />
          </mxGeometry>
        </mxCell>
        <mxCell id="xUE3wDn3A-6u5BoFQFFU-34" value="Отправляет оповещение" style="edgeLabel;html=1;align=center;verticalAlign=middle;resizable=0;points=[];" vertex="1" connectable="0" parent="xUE3wDn3A-6u5BoFQFFU-30">
          <mxGeometry x="-0.0889" y="4" relative="1" as="geometry">
            <mxPoint as="offset" />
          </mxGeometry>
        </mxCell>
        <object placeholders="1" c4Name="Bank System" c4Type="Container" c4Technology="System" c4Description="Автоматизированная банковская система (АБС)" label="&lt;font style=&quot;font-size: 16px&quot;&gt;&lt;b&gt;%c4Name%&lt;/b&gt;&lt;/font&gt;&lt;div&gt;[%c4Type%: %c4Technology%]&lt;/div&gt;&lt;br&gt;&lt;div&gt;&lt;font style=&quot;font-size: 11px&quot;&gt;&lt;font color=&quot;#E6E6E6&quot;&gt;%c4Description%&lt;/font&gt;&lt;/div&gt;" id="xUE3wDn3A-6u5BoFQFFU-25">
          <mxCell style="rounded=1;whiteSpace=wrap;html=1;fontSize=11;labelBackgroundColor=none;fillColor=#23A2D9;fontColor=#ffffff;align=center;arcSize=10;strokeColor=#0E7DAD;metaEdit=1;resizable=0;points=[[0.25,0,0],[0.5,0,0],[0.75,0,0],[1,0.25,0],[1,0.5,0],[1,0.75,0],[0.75,1,0],[0.5,1,0],[0.25,1,0],[0,0.75,0],[0,0.5,0],[0,0.25,0]];" vertex="1" parent="1">
            <mxGeometry x="210" y="-650" width="240" height="120" as="geometry" />
          </mxCell>
        </object>
        <mxCell id="xUE3wDn3A-6u5BoFQFFU-28" style="edgeStyle=orthogonalEdgeStyle;rounded=0;orthogonalLoop=1;jettySize=auto;html=1;entryX=0.218;entryY=-0.006;entryDx=0;entryDy=0;entryPerimeter=0;" edge="1" parent="1" source="xUE3wDn3A-6u5BoFQFFU-20" target="xUE3wDn3A-6u5BoFQFFU-25">
          <mxGeometry relative="1" as="geometry">
            <Array as="points">
              <mxPoint x="262" y="-760" />
            </Array>
          </mxGeometry>
        </mxCell>
        <mxCell id="xUE3wDn3A-6u5BoFQFFU-29" value="Обрабатывает заявки" style="edgeLabel;html=1;align=center;verticalAlign=middle;resizable=0;points=[];" vertex="1" connectable="0" parent="xUE3wDn3A-6u5BoFQFFU-28">
          <mxGeometry x="0.2901" y="-1" relative="1" as="geometry">
            <mxPoint as="offset" />
          </mxGeometry>
        </mxCell>
        <object placeholders="1" c4Name="Bank manager" c4Type="Person" c4Description="Сотрудник отделения" label="&lt;font style=&quot;font-size: 16px&quot;&gt;&lt;b&gt;%c4Name%&lt;/b&gt;&lt;/font&gt;&lt;div&gt;[%c4Type%]&lt;/div&gt;&lt;br&gt;&lt;div&gt;&lt;font style=&quot;font-size: 11px&quot;&gt;&lt;font color=&quot;#cccccc&quot;&gt;%c4Description%&lt;/font&gt;&lt;/div&gt;" id="xUE3wDn3A-6u5BoFQFFU-36">
          <mxCell style="html=1;fontSize=11;dashed=0;whiteSpace=wrap;fillColor=#083F75;strokeColor=#06315C;fontColor=#ffffff;shape=mxgraph.c4.person2;align=center;metaEdit=1;points=[[0.5,0,0],[1,0.5,0],[1,0.75,0],[0.75,1,0],[0.5,1,0],[0.25,1,0],[0,0.75,0],[0,0.5,0]];resizable=0;" vertex="1" parent="1">
            <mxGeometry x="-420" y="-1320" width="200" height="180" as="geometry" />
          </mxCell>
        </object>
        <mxCell id="xUE3wDn3A-6u5BoFQFFU-37" style="edgeStyle=orthogonalEdgeStyle;rounded=0;orthogonalLoop=1;jettySize=auto;html=1;entryX=0.5;entryY=0;entryDx=0;entryDy=0;entryPerimeter=0;" edge="1" parent="1" source="xUE3wDn3A-6u5BoFQFFU-11" target="xUE3wDn3A-6u5BoFQFFU-36">
          <mxGeometry relative="1" as="geometry" />
        </mxCell>
        <mxCell id="xUE3wDn3A-6u5BoFQFFU-38" value="Приходит в отделение без звонка" style="edgeLabel;html=1;align=center;verticalAlign=middle;resizable=0;points=[];" vertex="1" connectable="0" parent="xUE3wDn3A-6u5BoFQFFU-37">
          <mxGeometry x="0.4807" y="-2" relative="1" as="geometry">
            <mxPoint as="offset" />
          </mxGeometry>
        </mxCell>
        <mxCell id="xUE3wDn3A-6u5BoFQFFU-41" style="edgeStyle=orthogonalEdgeStyle;rounded=0;orthogonalLoop=1;jettySize=auto;html=1;entryX=0;entryY=0.5;entryDx=0;entryDy=0;entryPerimeter=0;exitX=0.5;exitY=1;exitDx=0;exitDy=0;exitPerimeter=0;" edge="1" parent="1" source="xUE3wDn3A-6u5BoFQFFU-36" target="xUE3wDn3A-6u5BoFQFFU-17">
          <mxGeometry relative="1" as="geometry" />
        </mxCell>
        <mxCell id="xUE3wDn3A-6u5BoFQFFU-42" value="Отправляет заявку" style="edgeLabel;html=1;align=center;verticalAlign=middle;resizable=0;points=[];" vertex="1" connectable="0" parent="xUE3wDn3A-6u5BoFQFFU-41">
          <mxGeometry x="-0.1874" relative="1" as="geometry">
            <mxPoint as="offset" />
          </mxGeometry>
        </mxCell>
        <mxCell id="xUE3wDn3A-6u5BoFQFFU-43" style="edgeStyle=orthogonalEdgeStyle;rounded=0;orthogonalLoop=1;jettySize=auto;html=1;entryX=0.995;entryY=0.685;entryDx=0;entryDy=0;entryPerimeter=0;" edge="1" parent="1" source="xUE3wDn3A-6u5BoFQFFU-20" target="xUE3wDn3A-6u5BoFQFFU-12">
          <mxGeometry relative="1" as="geometry">
            <Array as="points">
              <mxPoint x="240" y="-810" />
              <mxPoint x="240" y="-1197" />
            </Array>
          </mxGeometry>
        </mxCell>
        <mxCell id="xUE3wDn3A-6u5BoFQFFU-44" value="Уточняет специальные ставки" style="edgeLabel;html=1;align=center;verticalAlign=middle;resizable=0;points=[];" vertex="1" connectable="0" parent="xUE3wDn3A-6u5BoFQFFU-43">
          <mxGeometry x="-0.1084" y="3" relative="1" as="geometry">
            <mxPoint as="offset" />
          </mxGeometry>
        </mxCell>
        <mxCell id="xUE3wDn3A-6u5BoFQFFU-45" style="edgeStyle=orthogonalEdgeStyle;rounded=0;orthogonalLoop=1;jettySize=auto;html=1;entryX=0.5;entryY=0;entryDx=0;entryDy=0;entryPerimeter=0;" edge="1" parent="1" source="xUE3wDn3A-6u5BoFQFFU-12" target="xUE3wDn3A-6u5BoFQFFU-25">
          <mxGeometry relative="1" as="geometry" />
        </mxCell>
        <mxCell id="xUE3wDn3A-6u5BoFQFFU-46" value="Анализирует уровень кредитного риска" style="edgeLabel;html=1;align=center;verticalAlign=middle;resizable=0;points=[];" vertex="1" connectable="0" parent="xUE3wDn3A-6u5BoFQFFU-45">
          <mxGeometry x="0.2753" y="4" relative="1" as="geometry">
            <mxPoint as="offset" />
          </mxGeometry>
        </mxCell>
        <mxCell id="xUE3wDn3A-6u5BoFQFFU-47" style="edgeStyle=orthogonalEdgeStyle;rounded=0;orthogonalLoop=1;jettySize=auto;html=1;entryX=0.121;entryY=1;entryDx=0;entryDy=0;entryPerimeter=0;exitX=0.092;exitY=0.396;exitDx=0;exitDy=0;exitPerimeter=0;" edge="1" parent="1" source="xUE3wDn3A-6u5BoFQFFU-20" target="xUE3wDn3A-6u5BoFQFFU-17">
          <mxGeometry relative="1" as="geometry">
            <Array as="points">
              <mxPoint x="-51" y="-829" />
            </Array>
          </mxGeometry>
        </mxCell>
        <mxCell id="xUE3wDn3A-6u5BoFQFFU-48" value="Согласовывает заявку" style="edgeLabel;html=1;align=center;verticalAlign=middle;resizable=0;points=[];" vertex="1" connectable="0" parent="xUE3wDn3A-6u5BoFQFFU-47">
          <mxGeometry x="0.3319" y="4" relative="1" as="geometry">
            <mxPoint as="offset" />
          </mxGeometry>
        </mxCell>
        <mxCell id="xUE3wDn3A-6u5BoFQFFU-49" style="edgeStyle=orthogonalEdgeStyle;rounded=0;orthogonalLoop=1;jettySize=auto;html=1;entryX=0.75;entryY=1;entryDx=0;entryDy=0;entryPerimeter=0;exitX=0;exitY=0.25;exitDx=0;exitDy=0;exitPerimeter=0;" edge="1" parent="1" source="xUE3wDn3A-6u5BoFQFFU-17" target="xUE3wDn3A-6u5BoFQFFU-36">
          <mxGeometry relative="1" as="geometry" />
        </mxCell>
        <mxCell id="xUE3wDn3A-6u5BoFQFFU-50" value="Получает информацию по согласованию заявки" style="edgeLabel;html=1;align=center;verticalAlign=middle;resizable=0;points=[];" vertex="1" connectable="0" parent="xUE3wDn3A-6u5BoFQFFU-49">
          <mxGeometry x="0.2262" y="-3" relative="1" as="geometry">
            <mxPoint x="52" y="-17" as="offset" />
          </mxGeometry>
        </mxCell>
        <mxCell id="xUE3wDn3A-6u5BoFQFFU-51" style="edgeStyle=orthogonalEdgeStyle;rounded=0;orthogonalLoop=1;jettySize=auto;html=1;entryX=-0.002;entryY=0.589;entryDx=0;entryDy=0;entryPerimeter=0;" edge="1" parent="1" source="xUE3wDn3A-6u5BoFQFFU-36" target="xUE3wDn3A-6u5BoFQFFU-11">
          <mxGeometry relative="1" as="geometry">
            <Array as="points">
              <mxPoint x="-140" y="-1230" />
              <mxPoint x="-140" y="-1584" />
            </Array>
          </mxGeometry>
        </mxCell>
        <mxCell id="xUE3wDn3A-6u5BoFQFFU-52" value="Подписывает документы" style="edgeLabel;html=1;align=center;verticalAlign=middle;resizable=0;points=[];" vertex="1" connectable="0" parent="xUE3wDn3A-6u5BoFQFFU-51">
          <mxGeometry x="-0.258" y="4" relative="1" as="geometry">
            <mxPoint as="offset" />
          </mxGeometry>
        </mxCell>
        <mxCell id="xUE3wDn3A-6u5BoFQFFU-53" style="edgeStyle=orthogonalEdgeStyle;rounded=0;orthogonalLoop=1;jettySize=auto;html=1;entryX=0;entryY=0.75;entryDx=0;entryDy=0;entryPerimeter=0;" edge="1" parent="1" source="xUE3wDn3A-6u5BoFQFFU-36" target="xUE3wDn3A-6u5BoFQFFU-25">
          <mxGeometry relative="1" as="geometry">
            <Array as="points">
              <mxPoint x="-380" y="-560" />
            </Array>
          </mxGeometry>
        </mxCell>
        <mxCell id="xUE3wDn3A-6u5BoFQFFU-54" value="Загружает информацию по согласованию" style="edgeLabel;html=1;align=center;verticalAlign=middle;resizable=0;points=[];" vertex="1" connectable="0" parent="xUE3wDn3A-6u5BoFQFFU-53">
          <mxGeometry x="-0.3863" y="-2" relative="1" as="geometry">
            <mxPoint as="offset" />
          </mxGeometry>
        </mxCell>
      </root>
    </mxGraphModel>
  </diagram>
</mxfile>
